solid base
facet normal 0.0 0.0 -1.0
  outer loop
    vertex 150.0 100.0 0.0
    vertex 0.0 0.0 0.0
    vertex 0.0 100.0 0.0
  endloop
endfacet
facet normal 0.0 0.0 -1.0
  outer loop
    vertex 0.0 0.0 0.0
    vertex 150.0 100.0 0.0
    vertex 150.0 0.0 0.0
  endloop
endfacet
facet normal 1.0 0.0 0.0
  outer loop
    vertex 150.0 100.0 0.0
    vertex 150.0 0.0 90.0
    vertex 150.0 0.0 0.0
  endloop
endfacet
facet normal 1.0 0.0 0.0
  outer loop
    vertex 150.0 0.0 90.0
    vertex 150.0 100.0 0.0
    vertex 150.0 100.0 90.0
  endloop
endfacet
facet normal -0.0 -1.0 -0.0
  outer loop
    vertex 150.0 0.0 90.0
    vertex 0.0 0.0 0.0
    vertex 150.0 0.0 0.0
  endloop
endfacet
facet normal -0.0 -1.0 -0.0
  outer loop
    vertex 0.0 0.0 0.0
    vertex 150.0 0.0 90.0
    vertex 0.0 0.0 90.0
  endloop
endfacet
facet normal -1.0 0.0 0.0
  outer loop
    vertex 0.0 100.0 90.0
    vertex 0.0 0.0 0.0
    vertex 0.0 0.0 90.0
  endloop
endfacet
facet normal -1.0 0.0 0.0
  outer loop
    vertex 0.0 0.0 0.0
    vertex 0.0 100.0 90.0
    vertex 0.0 100.0 0.0
  endloop
endfacet
facet normal -0.0 1.0 0.0
  outer loop
    vertex 0.0 100.0 90.0
    vertex 150.0 100.0 0.0
    vertex 0.0 100.0 0.0
  endloop
endfacet
facet normal -0.0 1.0 0.0
  outer loop
    vertex 150.0 100.0 0.0
    vertex 0.0 100.0 90.0
    vertex 150.0 100.0 90.0
  endloop
endfacet
facet normal 0.0 0.0 1.0
  outer loop
    vertex 0.0 0.0 90.0
    vertex 3.999999999999999 4.0000000000000036 90.0
    vertex 0.0 100.0 90.0
  endloop
endfacet
facet normal 0.0 0.0 1.0
  outer loop
    vertex 3.999999999999999 4.0000000000000036 90.0
    vertex 0.0 0.0 90.0
    vertex 150.0 0.0 90.0
  endloop
endfacet
facet normal 0.0 0.0 1.0
  outer loop
    vertex 3.999999999999999 4.0000000000000036 90.0
    vertex 150.0 0.0 90.0
    vertex 146.0 3.9999999999999996 90.0
  endloop
endfacet
facet normal 0.0 0.0 1.0
  outer loop
    vertex 146.0 3.9999999999999996 90.0
    vertex 150.0 0.0 90.0
    vertex 146.0 96.0 90.0
  endloop
endfacet
facet normal 0.0 0.0 1.0
  outer loop
    vertex 0.0 100.0 90.0
    vertex 3.999999999999999 96.0 90.0
    vertex 150.0 100.0 90.0
  endloop
endfacet
facet normal 0.0 0.0 1.0
  outer loop
    vertex 3.999999999999999 96.0 90.0
    vertex 0.0 100.0 90.0
    vertex 3.999999999999999 4.0000000000000036 90.0
  endloop
endfacet
facet normal 0.0 0.0 1.0
  outer loop
    vertex 150.0 100.0 90.0
    vertex 3.999999999999999 96.0 90.0
    vertex 146.0 96.0 90.0
  endloop
endfacet
facet normal 0.0 0.0 1.0
  outer loop
    vertex 150.0 100.0 90.0
    vertex 146.0 96.0 90.0
    vertex 150.0 0.0 90.0
  endloop
endfacet
facet normal -0.0 -0.0 1.0
  outer loop
    vertex 144.0 6.0 5.0
    vertex 5.999999999999999 94.0 5.0
    vertex 5.999999999999989 6.0 5.0
  endloop
endfacet
facet normal -0.0 -0.0 1.0
  outer loop
    vertex 5.999999999999999 94.0 5.0
    vertex 144.0 6.0 5.0
    vertex 144.0 94.0 5.0
  endloop
endfacet
facet normal 0.0 0.0 1.0
  outer loop
    vertex 3.999999999999999 4.0000000000000036 80.0
    vertex 5.999999999999989 6.0 80.0
    vertex 3.999999999999999 96.0 80.0
  endloop
endfacet
facet normal 0.0 0.0 1.0
  outer loop
    vertex 5.999999999999989 6.0 80.0
    vertex 3.999999999999999 4.0000000000000036 80.0
    vertex 146.0 3.9999999999999996 80.0
  endloop
endfacet
facet normal 0.0 0.0 1.0
  outer loop
    vertex 5.999999999999989 6.0 80.0
    vertex 146.0 3.9999999999999996 80.0
    vertex 144.0 6.0 80.0
  endloop
endfacet
facet normal 0.0 0.0 1.0
  outer loop
    vertex 144.0 6.0 80.0
    vertex 146.0 3.9999999999999996 80.0
    vertex 144.0 94.0 80.0
  endloop
endfacet
facet normal 0.0 0.0 1.0
  outer loop
    vertex 3.999999999999999 96.0 80.0
    vertex 5.999999999999999 94.0 80.0
    vertex 146.0 96.0 80.0
  endloop
endfacet
facet normal 0.0 0.0 1.0
  outer loop
    vertex 5.999999999999999 94.0 80.0
    vertex 3.999999999999999 96.0 80.0
    vertex 5.999999999999989 6.0 80.0
  endloop
endfacet
facet normal 0.0 0.0 1.0
  outer loop
    vertex 146.0 96.0 80.0
    vertex 5.999999999999999 94.0 80.0
    vertex 144.0 94.0 80.0
  endloop
endfacet
facet normal 0.0 0.0 1.0
  outer loop
    vertex 146.0 96.0 80.0
    vertex 144.0 94.0 80.0
    vertex 146.0 3.9999999999999996 80.0
  endloop
endfacet
facet normal 1.0 0.0 0.0
  outer loop
    vertex 3.999999999999999 96.0 80.0
    vertex 3.999999999999999 4.0000000000000036 90.0
    vertex 3.999999999999999 4.0000000000000036 80.0
  endloop
endfacet
facet normal 1.0 0.0 0.0
  outer loop
    vertex 3.999999999999999 4.0000000000000036 90.0
    vertex 3.999999999999999 96.0 80.0
    vertex 3.999999999999999 96.0 90.0
  endloop
endfacet
facet normal 2.9788378336773564e-17 1.0 0.0
  outer loop
    vertex 3.999999999999999 4.0000000000000036 90.0
    vertex 146.0 3.9999999999999996 80.0
    vertex 3.999999999999999 4.0000000000000036 80.0
  endloop
endfacet
facet normal 2.9788378336773564e-17 1.0 0.0
  outer loop
    vertex 146.0 3.9999999999999996 80.0
    vertex 3.999999999999999 4.0000000000000036 90.0
    vertex 146.0 3.9999999999999996 90.0
  endloop
endfacet
facet normal -1.0 0.0 -0.0
  outer loop
    vertex 146.0 96.0 90.0
    vertex 146.0 3.9999999999999996 80.0
    vertex 146.0 3.9999999999999996 90.0
  endloop
endfacet
facet normal -1.0 0.0 -0.0
  outer loop
    vertex 146.0 3.9999999999999996 80.0
    vertex 146.0 96.0 90.0
    vertex 146.0 96.0 80.0
  endloop
endfacet
facet normal -0.0 -1.0 -0.0
  outer loop
    vertex 146.0 96.0 90.0
    vertex 3.999999999999999 96.0 80.0
    vertex 146.0 96.0 80.0
  endloop
endfacet
facet normal -0.0 -1.0 -0.0
  outer loop
    vertex 3.999999999999999 96.0 80.0
    vertex 146.0 96.0 90.0
    vertex 3.999999999999999 96.0 90.0
  endloop
endfacet
facet normal 0.0 1.0 0.0
  outer loop
    vertex 5.999999999999989 6.0 80.0
    vertex 144.0 6.0 5.0
    vertex 5.999999999999989 6.0 5.0
  endloop
endfacet
facet normal 0.0 1.0 0.0
  outer loop
    vertex 144.0 6.0 5.0
    vertex 5.999999999999989 6.0 80.0
    vertex 144.0 6.0 80.0
  endloop
endfacet
facet normal 1.0 -1.1215775782860957e-16 0.0
  outer loop
    vertex 5.999999999999999 94.0 5.0
    vertex 5.999999999999989 6.0 80.0
    vertex 5.999999999999989 6.0 5.0
  endloop
endfacet
facet normal 1.0 -1.1215775782860957e-16 0.0
  outer loop
    vertex 5.999999999999989 6.0 80.0
    vertex 5.999999999999999 94.0 5.0
    vertex 5.999999999999999 94.0 80.0
  endloop
endfacet
facet normal 0.0 -1.0 0.0
  outer loop
    vertex 144.0 94.0 80.0
    vertex 5.999999999999999 94.0 5.0
    vertex 144.0 94.0 5.0
  endloop
endfacet
facet normal 0.0 -1.0 0.0
  outer loop
    vertex 5.999999999999999 94.0 5.0
    vertex 144.0 94.0 80.0
    vertex 5.999999999999999 94.0 80.0
  endloop
endfacet
facet normal -1.0 -0.0 -0.0
  outer loop
    vertex 144.0 94.0 80.0
    vertex 144.0 6.0 5.0
    vertex 144.0 6.0 80.0
  endloop
endfacet
facet normal -1.0 -0.0 -0.0
  outer loop
    vertex 144.0 6.0 5.0
    vertex 144.0 94.0 80.0
    vertex 144.0 94.0 5.0
  endloop
endfacet
endsolid base
